<svg width="29" height="29" viewBox="0 0 29 29" fill="none" xmlns="http://www.w3.org/2000/svg">
<path d="M13.5 3.5H11.25C10.6533 3.5 10.081 3.73705 9.65901 4.15901C9.23705 4.58097 9 5.15326 9 5.75V22.25C9 22.8467 9.23705 23.419 9.65901 23.841C10.081 24.2629 10.6533 24.5 11.25 24.5H18.75C19.3467 24.5 19.919 24.2629 20.341 23.841C20.7629 23.419 21 22.8467 21 22.25V5.75C21 5.15326 20.7629 4.58097 20.341 4.15901C19.919 3.73705 19.3467 3.5 18.75 3.5H16.5M13.5 3.5V5H16.5V3.5M13.5 3.5H16.5M13.5 22.25H16.5" stroke="#212121" stroke-width="1.5" stroke-linecap="round" stroke-linejoin="round"/>
</svg>
