<svg width="29" height="29" viewBox="0 0 29 29" fill="none" xmlns="http://www.w3.org/2000/svg">
<path d="M16.918 25.3748H19.3346M16.918 25.3748C15.917 25.3748 15.1055 24.5633 15.1055 23.5623V20.5415H14.5013M16.918 25.3748H12.0846M14.5013 20.5415H13.8971V23.5623C13.8971 24.5633 13.0856 25.3748 12.0846 25.3748M14.5013 20.5415V25.3748M12.0846 25.3748H9.66797" stroke="#212121" stroke-width="2" stroke-linecap="round" stroke-linejoin="round"/>
<path d="M19.3327 3.625H9.66602C6.24833 3.625 4.53949 3.625 3.47775 4.68674C2.41602 5.74848 2.41602 7.45731 2.41602 10.875V13.2917C2.41602 16.7093 2.41602 18.4181 3.47775 19.4799C4.53949 20.5417 6.24833 20.5417 9.66602 20.5417H19.3327C22.7503 20.5417 24.4592 20.5417 25.5209 19.4799C26.5827 18.4181 26.5827 16.7093 26.5827 13.2917V10.875C26.5827 7.45731 26.5827 5.74848 25.5209 4.68674C24.4592 3.625 22.7503 3.625 19.3327 3.625Z" stroke="#212121" stroke-width="2" stroke-linecap="round" stroke-linejoin="round"/>
</svg>
