<svg width="29" height="29" viewBox="0 0 29 29" fill="none" xmlns="http://www.w3.org/2000/svg">
<path d="M21.7508 6.0415C22.3917 6.0415 23.0064 6.29612 23.4597 6.74933C23.9129 7.20254 24.1675 7.81723 24.1675 8.45817V18.7604C24.1673 19.1367 24.255 19.5079 24.4236 19.8443L25.7141 22.4144C25.8073 22.5993 25.8514 22.805 25.8422 23.0118C25.833 23.2186 25.7709 23.4196 25.6617 23.5954C25.5526 23.7713 25.4 23.9162 25.2188 24.0162C25.0375 24.1162 24.8336 24.168 24.6266 24.1665H4.37498C4.16798 24.168 3.96407 24.1162 3.78283 24.0162C3.60158 23.9162 3.44905 23.7713 3.33989 23.5954C3.23072 23.4196 3.16857 23.2186 3.15939 23.0118C3.15021 22.805 3.19432 22.5993 3.28748 22.4144L4.57798 19.8443C4.74659 19.5079 4.8343 19.1367 4.83414 18.7604V8.45817C4.83414 7.81723 5.08875 7.20254 5.54197 6.74933C5.99518 6.29612 6.60987 6.0415 7.25081 6.0415H21.7508Z" stroke="#212121" stroke-width="1.5" stroke-linecap="round" stroke-linejoin="round"/>
<path d="M24.2314 19.3174H4.76758" stroke="#212121" stroke-width="1.20833" stroke-linecap="round" stroke-linejoin="round"/>
</svg>
