<svg width="16" height="16" viewBox="0 0 16 16" fill="none" xmlns="http://www.w3.org/2000/svg">
<rect width="16" height="16" rx="4.875" fill="url(#paint0_linear_2235_1644)"/>
<path d="M7.88281 13.1953C7.0599 13.1953 6.26042 13.0391 5.48438 12.7266C4.70833 12.4089 4.0625 11.9818 3.54688 11.4453L4.32812 10.3438C4.75521 10.8021 5.28646 11.1745 5.92188 11.4609C6.55729 11.7422 7.21094 11.8828 7.88281 11.8828C8.61719 11.8828 9.23438 11.7135 9.73438 11.375C10.2344 11.0312 10.4844 10.5964 10.4844 10.0703C10.4844 9.92448 10.4609 9.78646 10.4141 9.65625C10.3672 9.52083 10.3125 9.40365 10.25 9.30469C10.1875 9.20052 10.0938 9.10156 9.96875 9.00781C9.84375 8.90885 9.73438 8.82812 9.64062 8.76562C9.55208 8.70312 9.41927 8.63802 9.24219 8.57031C9.0651 8.4974 8.92969 8.44531 8.83594 8.41406C8.7474 8.3776 8.60156 8.33333 8.39844 8.28125C8.20052 8.22396 8.07031 8.1875 8.00781 8.17188C7.94531 8.15625 7.81771 8.1276 7.625 8.08594C7.22917 8.0026 6.85938 7.90365 6.51562 7.78906C6.17708 7.66927 5.84115 7.51823 5.50781 7.33594C5.17969 7.14844 4.89844 6.94271 4.66406 6.71875C4.4349 6.48958 4.25 6.21354 4.10938 5.89062C3.96875 5.56771 3.89844 5.21875 3.89844 4.84375C3.89844 3.92708 4.26302 3.1849 4.99219 2.61719C5.72656 2.04948 6.67188 1.76562 7.82812 1.76562C8.58854 1.76562 9.28385 1.89062 9.91406 2.14062C10.5495 2.39062 11.0651 2.72917 11.4609 3.15625L10.7578 4.25C10.4557 3.91667 10.0365 3.63802 9.5 3.41406C8.96875 3.1901 8.40625 3.07812 7.8125 3.07812C7.11458 3.07812 6.53646 3.23958 6.07812 3.5625C5.625 3.88021 5.39844 4.28906 5.39844 4.78906C5.39844 5.69531 6.27865 6.33073 8.03906 6.69531C8.23177 6.73177 8.41667 6.77344 8.59375 6.82031C8.77604 6.86719 9.00521 6.9375 9.28125 7.03125C9.5625 7.125 9.81771 7.22917 10.0469 7.34375C10.2812 7.45312 10.5208 7.59635 10.7656 7.77344C11.0156 7.95052 11.2266 8.14323 11.3984 8.35156C11.5703 8.55469 11.7109 8.79948 11.8203 9.08594C11.9349 9.3724 11.9922 9.67969 11.9922 10.0078C11.9922 10.9401 11.599 11.7057 10.8125 12.3047C10.0312 12.8984 9.05469 13.1953 7.88281 13.1953Z" fill="#212121"/>
<defs>
<linearGradient id="paint0_linear_2235_1644" x1="1.5" y1="0.750001" x2="15" y2="16.25" gradientUnits="userSpaceOnUse">
<stop stop-color="#FFB1AD"/>
<stop offset="0.5" stop-color="#D9AED3"/>
<stop offset="1" stop-color="#FFDFD5"/>
</linearGradient>
</defs>
</svg>
