<svg width="32" height="32" viewBox="0 0 32 32" fill="none" xmlns="http://www.w3.org/2000/svg">
<rect width="32" height="32" rx="6" fill="url(#paint0_linear_2235_1640)"/>
<path d="M16.1553 26.3662C14.6123 26.3662 13.1133 26.0732 11.6582 25.4873C10.2031 24.8916 8.99219 24.0908 8.02539 23.085L9.49023 21.0195C10.291 21.8789 11.2871 22.5771 12.4785 23.1143C13.6699 23.6416 14.8955 23.9053 16.1553 23.9053C17.5322 23.9053 18.6895 23.5879 19.627 22.9531C20.5645 22.3086 21.0332 21.4932 21.0332 20.5068C21.0332 20.2334 20.9893 19.9746 20.9014 19.7305C20.8135 19.4766 20.7109 19.2568 20.5938 19.0713C20.4766 18.876 20.3008 18.6904 20.0664 18.5146C19.832 18.3291 19.627 18.1777 19.4512 18.0605C19.2852 17.9434 19.0361 17.8213 18.7041 17.6943C18.3721 17.5576 18.1182 17.46 17.9424 17.4014C17.7764 17.333 17.5029 17.25 17.1221 17.1523C16.751 17.0449 16.5068 16.9766 16.3896 16.9473C16.2725 16.918 16.0332 16.8643 15.6719 16.7861C14.9297 16.6299 14.2363 16.4443 13.5918 16.2295C12.957 16.0049 12.3271 15.7217 11.7021 15.3799C11.0869 15.0283 10.5596 14.6426 10.1201 14.2227C9.69043 13.793 9.34375 13.2754 9.08008 12.6699C8.81641 12.0645 8.68457 11.4102 8.68457 10.707C8.68457 8.98828 9.36816 7.59668 10.7354 6.53223C12.1123 5.46777 13.8848 4.93555 16.0527 4.93555C17.4785 4.93555 18.7822 5.16992 19.9639 5.63867C21.1553 6.10742 22.1221 6.74219 22.8643 7.54297L21.5459 9.59375C20.9795 8.96875 20.1934 8.44629 19.1875 8.02637C18.1914 7.60645 17.1367 7.39648 16.0234 7.39648C14.7148 7.39648 13.6309 7.69922 12.7715 8.30469C11.9219 8.90039 11.4971 9.66699 11.4971 10.6045C11.4971 12.3037 13.1475 13.4951 16.4482 14.1787C16.8096 14.2471 17.1562 14.3252 17.4883 14.4131C17.8301 14.501 18.2598 14.6328 18.7773 14.8086C19.3047 14.9844 19.7832 15.1797 20.2129 15.3945C20.6523 15.5996 21.1016 15.8682 21.5605 16.2002C22.0293 16.5322 22.4248 16.8936 22.7471 17.2842C23.0693 17.665 23.333 18.124 23.5381 18.6611C23.7529 19.1982 23.8604 19.7744 23.8604 20.3896C23.8604 22.1377 23.123 23.5732 21.6484 24.6963C20.1836 25.8096 18.3525 26.3662 16.1553 26.3662Z" fill="#212121"/>
<defs>
<linearGradient id="paint0_linear_2235_1640" x1="3" y1="1.5" x2="30" y2="32.5" gradientUnits="userSpaceOnUse">
<stop stop-color="#FFB1AD"/>
<stop offset="0.5" stop-color="#D9AED3"/>
<stop offset="1" stop-color="#FFDFD5"/>
</linearGradient>
</defs>
</svg>
