<svg width="30" height="31" viewBox="0 0 30 31" fill="none" xmlns="http://www.w3.org/2000/svg">
<path d="M8.85227 0.448374C8.91992 0.47388 8.9877 0.49902 9.05565 0.5237C9.73095 0.794493 10.352 1.26174 10.861 1.77411C10.9107 1.81264 10.9107 1.81264 10.9614 1.85195C11.0618 1.9348 11.0618 1.9348 11.1472 2.04277C11.5301 2.51808 12.1354 2.85981 12.6688 3.14002C12.6944 3.15355 12.7201 3.16708 12.7465 3.18101C13.5328 3.58561 14.4374 3.78993 15.3182 3.79245C15.3993 3.79283 15.4804 3.79408 15.5615 3.79535C15.9389 3.79683 16.2773 3.75013 16.646 3.66228C16.6818 3.65407 16.7175 3.64587 16.7544 3.63742C18.0127 3.34035 18.9753 2.72612 19.9176 1.84943C21.1232 0.775356 22.7392 0.369655 24.3192 0.448374C24.8405 0.487333 25.3175 0.584054 25.8056 0.769764C25.8691 0.79018 25.9327 0.810314 25.9964 0.830025C26.8306 1.11168 27.541 1.61739 28.1759 2.21602C28.2165 2.25346 28.2165 2.25346 28.2579 2.29166C29.3089 3.29438 29.9681 4.87057 30.0051 6.3162C30.0127 6.83065 29.9966 7.34125 29.8632 7.84035C29.8552 7.87118 29.8472 7.90201 29.839 7.93378C29.5982 8.84495 29.2353 9.69151 28.6178 10.4115C28.5781 10.4589 28.5385 10.5064 28.499 10.554C28.4566 10.6044 28.4142 10.6548 28.3717 10.7052C28.352 10.7288 28.3323 10.7524 28.3119 10.7767C28.1835 10.9273 28.0483 11.0501 27.8946 11.1748C27.794 11.2763 27.7041 11.3858 27.6134 11.4962C27.5822 11.5339 27.5511 11.5716 27.519 11.6104C27.2541 11.9384 27.0448 12.2879 26.8501 12.6612C26.8365 12.687 26.823 12.7128 26.809 12.7394C26.1975 13.9275 26.0003 15.4215 26.3279 16.7188C26.335 16.7479 26.3421 16.777 26.3494 16.8071C26.612 17.8724 27.1116 18.8909 27.9086 19.6621C28.0688 19.8206 28.2016 19.9944 28.334 20.1762C28.3708 20.2265 28.3708 20.2265 28.4083 20.2778C29.3385 21.569 29.7252 23.1535 29.4943 24.7307C29.4619 24.927 29.4236 25.1216 29.3811 25.3159C29.3744 25.3468 29.3677 25.3776 29.3609 25.4093C29.1191 26.4706 28.5039 27.3828 27.7741 28.1683C27.7484 28.1971 27.7227 28.2259 27.6963 28.2555C26.9293 29.0765 25.8375 29.588 24.7611 29.8556C24.6872 29.8748 24.6872 29.8748 24.6118 29.8945C23.8126 30.0698 22.8637 30.0511 22.0694 29.8556C22.0391 29.8485 22.0089 29.8414 21.9776 29.834C21.6204 29.7488 21.2948 29.6454 20.9703 29.4694C20.8724 29.4179 20.7775 29.3801 20.6734 29.3434C19.972 29.0691 19.4164 28.535 18.8971 28.0079C18.2267 27.3312 17.4382 26.8526 16.5454 26.5317C16.4665 26.5032 16.388 26.4735 16.3114 26.4394C14.9624 25.9522 13.2316 26.1816 11.9635 26.7644C11.5356 26.9685 11.1447 27.215 10.7706 27.5054C10.7478 27.523 10.725 27.5407 10.7016 27.5588C10.5808 27.6546 10.4695 27.7545 10.3618 27.8648C10.2175 28.0116 10.0629 28.139 9.8993 28.2637C9.86983 28.2862 9.84036 28.3086 9.80999 28.3318C9.51971 28.5486 9.21495 28.7273 8.89245 28.8914C8.85703 28.9097 8.8216 28.928 8.78511 28.9468C8.67506 28.9999 8.56383 29.0464 8.45054 29.0923C8.42106 29.1047 8.39159 29.117 8.36123 29.1298C6.91616 29.7302 5.25438 29.6877 3.80717 29.1113C3.03244 28.7775 2.27157 28.3175 1.70134 27.6862C1.67944 27.6626 1.65753 27.639 1.63496 27.6146C0.391373 26.2385 -0.0708471 24.5701 0.00865904 22.7486C0.0307628 22.4034 0.116486 22.0707 0.214915 21.7405C0.223065 21.7118 0.231215 21.683 0.239612 21.6535C0.56156 20.5313 1.21004 19.6502 2.03068 18.844C2.56774 18.3107 2.94887 17.6816 3.26812 17C3.28099 16.9729 3.29386 16.9459 3.30712 16.918C3.51503 16.475 3.61996 16.0364 3.69518 15.5537C3.71003 15.4734 3.71003 15.4734 3.75021 15.3528C3.75508 15.2409 3.75777 15.1301 3.75837 15.0181C3.7586 14.9848 3.75882 14.9516 3.75906 14.9173C3.75944 14.8466 3.7597 14.7759 3.75986 14.7052C3.76024 14.599 3.76149 14.4928 3.76276 14.3866C3.76529 13.9795 3.73264 13.6191 3.62968 13.2236C3.61876 13.1696 3.60828 13.1155 3.59861 13.0612C3.54788 12.796 3.47756 12.5652 3.35851 12.3229C3.31 12.2228 3.2697 12.1224 3.23046 12.0184C2.98436 11.3963 2.56998 10.8626 2.12317 10.3713C1.50024 9.68352 1.02589 8.92576 0.737174 8.04122C0.728305 8.01464 0.719437 7.98806 0.7103 7.96067C0.23836 6.5327 0.345431 4.82694 1.01588 3.47898C1.06835 3.37824 1.12301 3.27897 1.17909 3.18019C1.20472 3.13493 1.23035 3.08967 1.25677 3.04303C1.6554 2.3709 2.16176 1.7642 2.78604 1.29202C2.82762 1.25986 2.8692 1.2277 2.91205 1.19457C3.71048 0.590824 4.6469 0.181018 5.64261 0.0656249C6.72903 -0.066227 7.83925 -0.0281057 8.85227 0.448374Z" fill="#1D1D1B"/>
<path d="M18.6939 10.1302C18.7294 10.1573 18.7648 10.1845 18.8013 10.2125C19.2717 10.5844 19.68 11.0016 20.0197 11.4961C20.0439 11.531 20.068 11.5659 20.093 11.6018C20.2995 11.9128 20.4625 12.2442 20.6223 12.5808C20.6414 12.6199 20.6605 12.6591 20.6802 12.6994C21.0051 13.4123 21.1205 14.2506 21.1169 15.0263C21.1168 15.0663 21.1168 15.0663 21.1166 15.107C21.1143 15.4638 21.1099 15.8038 21.0095 16.1483C20.9765 16.262 20.9463 16.3764 20.9156 16.4908C20.772 17.0116 20.6115 17.4956 20.3411 17.964C20.3205 18.0011 20.2998 18.0382 20.2786 18.0764C20.0191 18.5281 19.6947 18.9148 19.3367 19.2898C19.2921 19.3376 19.2921 19.3376 19.2465 19.3864C18.7568 19.8968 18.1482 20.2973 17.4993 20.5762C17.44 20.6018 17.3812 20.6284 17.3228 20.656C17.0711 20.7743 16.8125 20.8507 16.5446 20.9243C16.4798 20.9429 16.4798 20.9429 16.4136 20.9618C15.9592 21.0882 15.5278 21.1071 15.0583 21.1095C14.9936 21.1099 14.9289 21.1107 14.8642 21.1119C14.3785 21.1209 13.9402 21.0643 13.4714 20.9369C13.4307 20.9259 13.3901 20.915 13.3483 20.9037C13.253 20.8764 13.1588 20.8471 13.0646 20.8164C13.0341 20.807 13.0037 20.7975 12.9723 20.7878C12.7946 20.731 12.6305 20.662 12.4651 20.5759C12.3881 20.5359 12.3102 20.4986 12.2316 20.4619C11.8763 20.293 11.5682 20.1017 11.2618 19.8522C11.2062 19.8088 11.2062 19.8088 11.1494 19.7645C9.90792 18.7807 9.07641 17.2922 8.89155 15.7143C8.87661 15.479 8.87195 15.2445 8.87146 15.0088C8.87134 14.9763 8.87122 14.9439 8.87109 14.9105C8.87124 14.297 8.95334 13.7325 9.13259 13.1432C9.14544 13.1007 9.14544 13.1007 9.15854 13.0574C9.20637 12.9064 9.26569 12.7641 9.33346 12.6209C9.34452 12.5969 9.35558 12.5729 9.36698 12.5482C9.64234 11.9547 9.96287 11.4069 10.4182 10.9336C10.4636 10.8803 10.5088 10.8267 10.5537 10.7729C11.0986 10.1518 11.8272 9.68284 12.5875 9.36685C12.654 9.33703 12.654 9.33703 12.7219 9.30659C12.9499 9.20464 13.171 9.10766 13.4177 9.06273C13.5777 9.03329 13.7351 8.99134 13.893 8.95241C15.5494 8.62926 17.3705 9.09884 18.6939 10.1302Z" fill="#FEFEFE"/>
</svg>
