<svg width="31" height="30" viewBox="0 0 31 30" fill="none" xmlns="http://www.w3.org/2000/svg">
<path d="M0.880931 25.9517C0.903631 26.0186 0.926202 26.0855 0.948683 26.1525C1.05567 26.4497 1.20671 26.7218 1.36272 26.9956C1.39556 27.0534 1.39556 27.0534 1.42906 27.1124C2.17516 28.3511 3.52574 29.4075 4.93115 29.7675C5.04004 29.7919 5.14923 29.8128 5.25918 29.8319C5.33574 29.8459 5.41155 29.8639 5.48727 29.882C6.25625 30.0516 7.14547 30.038 7.90704 29.8462C7.96851 29.8337 8.03005 29.8215 8.09164 29.8095C8.39324 29.7498 8.6718 29.6897 8.94136 29.5349C9.03608 29.4822 9.13372 29.4416 9.23355 29.3996C9.64875 29.2139 10.0505 28.9769 10.3963 28.6819C10.4264 28.659 10.4565 28.6361 10.4876 28.6126C10.7175 28.435 10.9184 28.2408 11.1208 28.0329C11.6615 27.478 12.2264 27.0482 12.9257 26.7146C12.9531 26.7011 12.9804 26.6877 13.0086 26.6738C14.2198 26.0867 15.764 25.9101 17.0587 26.3284C17.1447 26.3542 17.2303 26.3723 17.3184 26.3898C17.526 26.4344 17.715 26.5121 17.9092 26.5966C17.946 26.6126 17.9828 26.6286 18.0207 26.645C18.6847 26.9398 19.2478 27.3448 19.776 27.8399C19.9693 28.0194 20.1761 28.1717 20.3934 28.3205C20.4323 28.3478 20.4712 28.3751 20.5112 28.4032C20.9038 28.6732 21.3142 28.8738 21.7585 29.0432C21.7904 29.0567 21.8223 29.0702 21.8551 29.0842C21.97 29.1276 22.0827 29.1549 22.2027 29.1812C22.4168 29.2289 22.6289 29.2814 22.8407 29.3384C23.5717 29.494 24.4494 29.4709 25.1712 29.2841C25.2378 29.2688 25.3044 29.2536 25.371 29.2385C26.2031 29.0461 26.9473 28.6893 27.6203 28.1599C27.653 28.1354 27.6856 28.1109 27.7193 28.0856C28.3632 27.5912 28.8628 26.9733 29.2664 26.2729C29.2878 26.2372 29.3092 26.2015 29.3312 26.1647C29.5782 25.7371 29.7415 25.2737 29.8425 24.7913C29.877 24.6272 29.9201 24.4656 29.9631 24.3036C30.0356 23.9736 30.0366 23.6486 30.0368 23.3119C30.0373 23.2638 30.0378 23.2157 30.0383 23.1661C30.0388 22.8547 30.0102 22.563 29.949 22.258C29.9433 22.2275 29.9377 22.1971 29.9318 22.1657C29.6181 20.5041 28.7094 19.1816 27.3437 18.1998C26.7656 17.8156 26.1244 17.5533 25.4573 17.3723C25.3902 17.3538 25.3902 17.3538 25.3218 17.3349C25.2048 17.3027 25.0877 17.2707 24.9705 17.2394C24.9453 17.2323 24.9201 17.2252 24.8942 17.218C24.8074 17.1987 24.7298 17.1933 24.6409 17.1921C24.6079 17.1916 24.5749 17.1911 24.5409 17.1905C24.5053 17.1902 24.4698 17.1899 24.4332 17.1896C24.3959 17.1893 24.3586 17.189 24.3202 17.1887C24.241 17.1881 24.1619 17.1877 24.0827 17.1874C24.003 17.1869 23.9234 17.1861 23.8438 17.1849C23.2451 17.1759 22.6799 17.2093 22.1199 17.4401C22.0727 17.4509 22.0255 17.4616 21.9768 17.4727C21.3175 17.6345 20.673 18.0177 20.1526 18.4438C20.0931 18.4911 20.0931 18.4911 20.0324 18.5393C19.7973 18.7297 19.5819 18.9329 19.371 19.1499C18.9393 19.5942 18.4845 19.9481 17.9443 20.2505C17.9109 20.2703 17.8774 20.2901 17.8429 20.3105C17.4058 20.5612 16.941 20.7264 16.4485 20.8294C16.3384 20.8528 16.3384 20.8528 16.2004 20.8954C15.4011 21.1058 14.5313 21.0615 13.7287 20.8929C13.7015 20.8876 13.6742 20.8822 13.6462 20.8766C12.5552 20.6574 11.6115 20.0709 10.7851 19.3462C10.47 19.0702 10.1535 18.8206 9.79406 18.6044C9.76435 18.5848 9.73464 18.5652 9.70403 18.545C9.16096 18.1945 8.53202 17.9889 7.90704 17.8416C7.86789 17.8317 7.86789 17.8317 7.82794 17.8217C6.91182 17.5957 5.8464 17.6418 4.96 17.9661C4.86301 17.9997 4.77075 18.0213 4.67001 18.0398C4.49273 18.0758 4.34573 18.1502 4.1865 18.2343C4.08702 18.288 4.08702 18.288 3.95486 18.3409C3.58043 18.5052 3.25237 18.7176 2.92854 18.9658C2.87971 19.0022 2.87971 19.0022 2.82989 19.0393C1.98133 19.6905 1.3219 20.5856 0.92108 21.5755C0.904942 21.6153 0.904942 21.6153 0.888479 21.6559C0.372874 22.9678 0.309316 24.6484 0.880931 25.9517Z" fill="#1D1D1B"/>
<path d="M0.404368 8.76813C0.427068 8.83501 0.449639 8.90193 0.47212 8.96888C0.579107 9.26616 0.730151 9.53818 0.886159 9.81201C0.918997 9.86985 0.918997 9.86985 0.952499 9.92885C1.6986 11.1675 3.04917 12.2239 4.45459 12.5839C4.56348 12.6083 4.67267 12.6292 4.78261 12.6483C4.85918 12.6623 4.93499 12.6803 5.01071 12.6984C5.77968 12.868 6.66891 12.8544 7.43048 12.6626C7.49195 12.6501 7.55349 12.6379 7.61507 12.6259C7.91668 12.5662 8.19524 12.5061 8.46479 12.3513C8.55952 12.2986 8.65716 12.258 8.75698 12.216C9.17219 12.0303 9.57396 11.7933 9.91973 11.4983C9.94985 11.4754 9.97997 11.4525 10.011 11.429C10.2409 11.2514 10.4418 11.0572 10.6442 10.8493C11.1849 10.2944 11.7499 9.86456 12.4491 9.53097C12.4765 9.51753 12.5039 9.50408 12.5321 9.49023C13.7432 8.90313 15.2874 8.72649 16.5821 9.14482C16.6682 9.17064 16.7537 9.18871 16.8419 9.20617C17.0494 9.25081 17.2384 9.32846 17.4327 9.41303C17.4695 9.429 17.5062 9.44497 17.5442 9.46142C18.2081 9.7562 18.7713 10.1612 19.2995 10.6563C19.4928 10.8358 19.6996 10.9881 19.9169 11.1369C19.9558 11.1642 19.9946 11.1915 20.0347 11.2196C20.4272 11.4896 20.8377 11.6902 21.282 11.8596C21.3138 11.8731 21.3457 11.8866 21.3786 11.9006C21.4934 11.944 21.6062 11.9713 21.7261 11.9976C21.9402 12.0453 22.1523 12.0979 22.3641 12.1548C23.0952 12.3104 23.9728 12.2873 24.6946 12.1005C24.7612 12.0852 24.8278 12.07 24.8944 12.0549C25.7265 11.8625 26.4707 11.5057 27.1437 10.9763C27.1764 10.9518 27.2091 10.9273 27.2427 10.902C27.8866 10.4076 28.3862 9.78967 28.7899 9.08933C28.8112 9.05362 28.8326 9.01791 28.8546 8.98111C29.1016 8.5535 29.2649 8.09013 29.3659 7.60773C29.4005 7.44362 29.4435 7.28205 29.4865 7.11998C29.5591 6.78999 29.56 6.46498 29.5602 6.12832C29.5607 6.08019 29.5612 6.03206 29.5617 5.98247C29.5622 5.67116 29.5336 5.37942 29.4724 5.07441C29.4668 5.04394 29.4611 5.01347 29.4553 4.98207C29.1416 3.32053 28.2328 1.99803 26.8671 1.0162C26.289 0.631963 25.6478 0.369723 24.9807 0.188751C24.9136 0.170236 24.9136 0.170236 24.8452 0.151346C24.7282 0.119133 24.6111 0.0871072 24.4939 0.0557567C24.4687 0.0487051 24.4436 0.0416535 24.4177 0.0343882C24.3308 0.0150587 24.2532 0.00971838 24.1644 0.00850095C24.1313 0.00798563 24.0983 0.0074703 24.0643 0.00693936C24.0288 0.00664278 23.9932 0.0063462 23.9566 0.00604063C23.9193 0.00571655 23.8821 0.00539248 23.8437 0.00505858C23.7645 0.00450329 23.6853 0.00407261 23.6061 0.00375673C23.5265 0.00329854 23.4468 0.00248445 23.3672 0.00128661C22.7685 -0.00770515 22.2033 0.0256596 21.6433 0.256503C21.5961 0.267268 21.5489 0.278033 21.5003 0.289124C20.8409 0.4509 20.1964 0.834125 19.676 1.26023C19.6165 1.30751 19.6165 1.30751 19.5559 1.35574C19.3207 1.54612 19.1053 1.74927 18.8945 1.96628C18.4628 2.41063 18.0079 2.76448 17.4678 3.06695C17.4343 3.08672 17.4008 3.10649 17.3663 3.12686C16.9292 3.37764 16.4645 3.54285 15.9719 3.64582C15.8618 3.66919 15.8618 3.66919 15.7238 3.71184C14.9246 3.92217 14.0547 3.87793 13.2521 3.70933C13.2249 3.70396 13.1977 3.69858 13.1696 3.69304C12.0787 3.47379 11.1349 2.88726 10.3086 2.16261C9.99349 1.88662 9.67693 1.63703 9.31749 1.42083C9.28779 1.40121 9.25808 1.3816 9.22747 1.36139C8.6844 1.01093 8.05546 0.805282 7.43048 0.657994C7.39133 0.648135 7.39133 0.648135 7.35138 0.638076C6.43525 0.412138 5.36983 0.458198 4.48344 0.782519C4.38645 0.816064 4.29419 0.83766 4.19345 0.856231C4.01617 0.8922 3.86917 0.966561 3.70994 1.0507C3.61045 1.10439 3.61045 1.10439 3.47829 1.15735C3.10386 1.32157 2.77581 1.53398 2.45198 1.78217C2.40315 1.81858 2.40315 1.81858 2.35333 1.85573C1.50477 2.50689 0.845342 3.40203 0.444518 4.39187C0.42838 4.4317 0.42838 4.4317 0.411916 4.47233C-0.103688 5.78421 -0.167247 7.46485 0.404368 8.76813Z" fill="#1D1D1B"/>
<path d="M17.7843 6.55938C17.7861 6.63197 17.7861 6.63197 17.7879 6.70602C17.8251 7.43866 18.0918 8.23889 18.4267 8.88804C18.4389 8.91171 18.451 8.93538 18.4635 8.95977C19.2069 10.3914 20.5054 11.5 22.0422 11.9927C23.6499 12.4898 25.3373 12.3161 26.8279 11.5358C27.0059 11.4394 27.1744 11.3332 27.3398 11.2167C27.3785 11.1895 27.4171 11.1624 27.4568 11.1344C28.2659 10.5458 28.8513 9.82511 29.3454 8.96043C29.38 8.90085 29.4164 8.84229 29.4532 8.78406C29.5693 8.57874 29.6336 8.34801 29.7087 8.1252C29.7199 8.09203 29.7311 8.05885 29.7427 8.02467C29.8125 7.80528 29.8637 7.58178 29.9144 7.35735C29.9213 7.32714 29.9281 7.29693 29.9352 7.2658C30.2631 5.77498 29.9152 4.13535 29.1039 2.85546C28.5483 2.03105 27.8664 1.37444 27.0129 0.863528C26.9489 0.824483 26.8863 0.783202 26.824 0.741512C26.0097 0.213823 24.8799 -0.00128114 23.9247 6.00859e-06C23.8739 7.07e-05 23.8232 0.000135392 23.7709 0.000202043C23.3701 0.00539718 22.9974 0.053907 22.6098 0.153349C22.5239 0.175158 22.4378 0.194675 22.3513 0.213612C21.2572 0.459082 20.3479 1.05123 19.5509 1.82178C19.5242 1.84641 19.4975 1.87105 19.47 1.89643C18.1948 3.10006 17.7387 4.8661 17.7843 6.55938Z" fill="#1D1D1B"/>
<path d="M0.0709105 5.62407C0.0706817 5.66151 0.0704528 5.69895 0.070217 5.73753C0.0698387 5.81673 0.0695757 5.89593 0.0694206 5.97513C0.0690338 6.09434 0.0677884 6.21352 0.0665192 6.33272C0.0630994 6.93298 0.136825 7.46554 0.335017 8.03569C0.347419 8.0719 0.35982 8.10811 0.372598 8.14542C0.461413 8.40085 0.555675 8.64896 0.681304 8.88886C0.699751 8.92443 0.699751 8.92443 0.718571 8.96071C1.48015 10.4148 2.79045 11.5192 4.35808 12.0129C4.81796 12.1519 5.26018 12.2418 5.7401 12.2614C5.77303 12.2629 5.80595 12.2644 5.83987 12.2659C7.64253 12.3356 9.18139 11.6729 10.5039 10.479C10.9014 10.1003 11.2101 9.64471 11.4814 9.1699C11.504 9.13393 11.5266 9.09797 11.5498 9.06091C11.8586 8.56081 12.0318 8.01385 12.164 7.44349C12.176 7.39448 12.1881 7.34546 12.2005 7.29497C12.4388 6.23176 12.3609 4.84088 11.8552 3.85735C11.8075 3.75963 11.7687 3.66258 11.7299 3.56109C11.6457 3.3487 11.5414 3.15484 11.4237 2.95932C11.4029 2.92471 11.3821 2.89009 11.3606 2.85443C11.1531 2.51892 10.909 2.22877 10.6383 1.94305C10.6075 1.90946 10.5766 1.87587 10.5448 1.84126C10.175 1.45289 9.73283 1.13236 9.27324 0.859018C9.23043 0.832623 9.18763 0.806228 9.14353 0.779033C8.64201 0.475376 8.12101 0.29257 7.54682 0.176481C7.4991 0.165768 7.45138 0.155054 7.40222 0.144016C5.85474 -0.202261 4.23217 0.107678 2.88951 0.939316C1.83806 1.62282 0.906906 2.63667 0.480558 3.83006C0.467982 3.8622 0.455405 3.89434 0.442448 3.92745C0.351963 4.16314 0.279989 4.40265 0.21206 4.64559C0.203446 4.67631 0.194832 4.70702 0.185957 4.73867C0.104278 5.03682 0.0723939 5.31537 0.0709105 5.62407Z" fill="#1D1D1B"/>
</svg>
