<svg width="30" height="30" viewBox="0 0 30 30" fill="none" xmlns="http://www.w3.org/2000/svg">
<path d="M25.9517 29.1767C26.0186 29.154 26.0855 29.1314 26.1525 29.1089C26.4497 29.0019 26.7218 28.8509 26.9956 28.6949C27.0534 28.6621 27.0534 28.6621 27.1124 28.6286C28.3511 27.8825 29.4075 26.5319 29.7675 25.1265C29.7919 25.0176 29.8128 24.9084 29.8319 24.7984C29.8459 24.7219 29.8639 24.6461 29.882 24.5703C30.0516 23.8014 30.038 22.9121 29.8462 22.1506C29.8337 22.0891 29.8215 22.0276 29.8095 21.966C29.7498 21.6644 29.6897 21.3858 29.5349 21.1163C29.4822 21.0215 29.4416 20.9239 29.3996 20.8241C29.2139 20.4089 28.9769 20.0071 28.6819 19.6613C28.659 19.6312 28.6361 19.6011 28.6126 19.57C28.435 19.3402 28.2408 19.1392 28.0329 18.9368C27.478 18.3962 27.0482 17.8312 26.7146 17.1319C26.7011 17.1046 26.6877 17.0772 26.6738 17.049C26.0867 15.8379 25.9101 14.2936 26.3284 12.9989C26.3542 12.9129 26.3723 12.8273 26.3898 12.7392C26.4344 12.5316 26.5121 12.3426 26.5966 12.1484C26.6126 12.1116 26.6286 12.0748 26.645 12.0369C26.9398 11.3729 27.3448 10.8098 27.8399 10.2816C28.0194 10.0883 28.1717 9.88149 28.3205 9.66417C28.3478 9.6253 28.3751 9.58643 28.4032 9.54638C28.6732 9.15385 28.8738 8.74338 29.0432 8.29909C29.0567 8.26721 29.0702 8.23533 29.0842 8.20248C29.1276 8.08762 29.1549 7.97487 29.1812 7.85494C29.2289 7.64084 29.2814 7.42876 29.3384 7.21695C29.494 6.48588 29.4709 5.60824 29.2841 4.88641C29.2688 4.81984 29.2536 4.75323 29.2385 4.68661C29.0461 3.85452 28.6893 3.11031 28.1599 2.43731C28.1354 2.40465 28.1109 2.37199 28.0856 2.33835C27.5912 1.69442 26.9733 1.19482 26.2729 0.791191C26.2372 0.769815 26.2015 0.74844 26.1647 0.726418C25.7371 0.479424 25.2737 0.316166 24.7913 0.215143C24.6272 0.180582 24.4656 0.137543 24.3036 0.0945377C23.9736 0.021986 23.6486 0.0210056 23.3119 0.0208263C23.2638 0.0203362 23.2157 0.0198441 23.1661 0.0193367C22.8547 0.0188313 22.563 0.0474129 22.258 0.108654C22.2275 0.114304 22.1971 0.119955 22.1657 0.125778C20.5041 0.439484 19.1816 1.34826 18.1998 2.71396C17.8156 3.29205 17.5533 3.93323 17.3723 4.60035C17.3538 4.66742 17.3538 4.66742 17.3349 4.73585C17.3027 4.85286 17.2707 4.96991 17.2393 5.08716C17.2323 5.11232 17.2252 5.13747 17.218 5.1634C17.1987 5.25022 17.1933 5.32783 17.1921 5.41668C17.1916 5.44971 17.1911 5.48273 17.1905 5.51675C17.1902 5.5523 17.1899 5.58784 17.1896 5.62447C17.1893 5.66174 17.189 5.699 17.1887 5.7374C17.1881 5.81658 17.1877 5.89575 17.1873 5.97493C17.1869 6.05458 17.1861 6.13422 17.1849 6.21386C17.1759 6.81254 17.2093 7.37772 17.4401 7.93775C17.4509 7.98495 17.4616 8.03215 17.4727 8.08078C17.6345 8.74014 18.0177 9.38466 18.4438 9.90506C18.4911 9.96453 18.4911 9.96453 18.5393 10.0252C18.7297 10.2603 18.9329 10.4758 19.1499 10.6866C19.5942 11.1183 19.9481 11.5732 20.2505 12.1133C20.2703 12.1468 20.2901 12.1802 20.3105 12.2147C20.5612 12.6518 20.7264 13.1166 20.8294 13.6091C20.8528 13.7192 20.8528 13.7192 20.8954 13.8573C21.1058 14.6565 21.0615 15.5263 20.8929 16.3289C20.8876 16.3562 20.8822 16.3834 20.8766 16.4114C20.6574 17.5024 20.0709 18.4461 19.3462 19.2725C19.0702 19.5876 18.8206 19.9041 18.6044 20.2636C18.5848 20.2933 18.5652 20.323 18.545 20.3536C18.1945 20.8967 17.9889 21.5256 17.8416 22.1506C17.8317 22.1897 17.8317 22.1897 17.8217 22.2297C17.5957 23.1458 17.6418 24.2112 17.9661 25.0976C17.9997 25.1946 18.0213 25.2869 18.0398 25.3876C18.0758 25.5649 18.1502 25.7119 18.2343 25.8711C18.288 25.9706 18.288 25.9706 18.3409 26.1028C18.5052 26.4772 18.7176 26.8052 18.9658 27.1291C19.0022 27.1779 19.0022 27.1779 19.0393 27.2277C19.6905 28.0763 20.5856 28.7357 21.5755 29.1365C21.6153 29.1527 21.6153 29.1527 21.6559 29.1691C22.9678 29.6847 24.6484 29.7483 25.9517 29.1767Z" fill="#1D1D1B"/>
<path d="M6.55938 12.2733C6.63197 12.2715 6.63197 12.2715 6.70602 12.2697C7.43866 12.2325 8.23889 11.9658 8.88804 11.6309C8.91171 11.6188 8.93538 11.6066 8.95977 11.5941C10.3914 10.8507 11.5 9.5522 11.9927 8.01543C12.4898 6.40772 12.3161 4.72036 11.5358 3.22967C11.4394 3.05168 11.3332 2.88322 11.2167 2.71777C11.1895 2.67916 11.1624 2.64055 11.1344 2.60077C10.5458 1.79169 9.82511 1.20631 8.96043 0.712172C8.90085 0.677592 8.84229 0.641249 8.78406 0.604446C8.57874 0.488312 8.34801 0.424054 8.1252 0.348966C8.09203 0.337735 8.05885 0.326505 8.02467 0.314934C7.80528 0.245108 7.58178 0.193887 7.35735 0.143201C7.32714 0.13634 7.29693 0.129479 7.2658 0.122411C5.77498 -0.205523 4.13535 0.142453 2.85546 0.953713C2.03105 1.50927 1.37444 2.19123 0.863528 3.04475C0.824482 3.10872 0.783202 3.17131 0.741512 3.23359C0.213822 4.04791 -0.00128145 5.17768 5.74005e-06 6.13296C7.04337e-05 6.18369 0.000135127 6.23442 0.000201781 6.28669C0.00539693 6.68755 0.0539068 7.06017 0.153349 7.44785C0.175157 7.5337 0.194674 7.61978 0.213612 7.70631C0.459082 8.80045 1.05123 9.70975 1.82178 10.5067C1.84641 10.5334 1.87105 10.5601 1.89643 10.5876C3.10006 11.8628 4.8661 12.3189 6.55938 12.2733Z" fill="#1D1D1B"/>
<path d="M5.62358 29.9877C5.66102 29.9879 5.69846 29.9881 5.73704 29.9884C5.81624 29.9888 5.89544 29.989 5.97464 29.9892C6.09385 29.9896 6.21303 29.9908 6.33223 29.9921C6.93249 29.9955 7.46505 29.9218 8.0352 29.7236C8.07141 29.7112 8.10763 29.6988 8.14493 29.686C8.40036 29.5972 8.64847 29.5029 8.88837 29.3773C8.92394 29.3588 8.92394 29.3588 8.96022 29.34C10.4143 28.5784 11.5187 27.2681 12.0124 25.7005C12.1514 25.2406 12.2413 24.7984 12.2609 24.3185C12.2624 24.2856 12.2639 24.2526 12.2654 24.2187C12.3351 22.4161 11.6725 20.8772 10.4785 19.5547C10.0999 19.1572 9.64423 18.8485 9.16942 18.5772C9.13345 18.5546 9.09748 18.532 9.06042 18.5088C8.56032 18.2 8.01336 18.0268 7.443 17.8946C7.39399 17.8826 7.34498 17.8705 7.29448 17.8581C6.23127 17.6198 4.84039 17.6977 3.85686 18.2034C3.75914 18.2511 3.66209 18.2899 3.5606 18.3287C3.34821 18.4129 3.15435 18.5172 2.95883 18.6349C2.92422 18.6557 2.88961 18.6765 2.85394 18.698C2.51843 18.9055 2.22828 19.1496 1.94256 19.4203C1.90897 19.4511 1.87538 19.482 1.84077 19.5138C1.4524 19.8836 1.13187 20.3258 0.858529 20.7854C0.832134 20.8282 0.805739 20.871 0.778544 20.9151C0.474887 21.4166 0.292082 21.9376 0.175992 22.5118C0.165279 22.5595 0.154566 22.6072 0.143528 22.6564C-0.20275 24.2039 0.10719 25.8264 0.938827 27.1691C1.62233 28.2205 2.63618 29.1517 3.82957 29.578C3.86171 29.5906 3.89385 29.6032 3.92696 29.6161C4.16265 29.7066 4.40216 29.7786 4.6451 29.8465C4.67582 29.8551 4.70653 29.8638 4.73818 29.8726C5.03633 29.9543 5.31488 29.9862 5.62358 29.9877Z" fill="#1D1D1B"/>
</svg>
