<svg width="30" height="30" viewBox="0 0 30 30" fill="none" xmlns="http://www.w3.org/2000/svg">
<path d="M23.3036 0.00069632C23.3544 0.000466534 23.4053 0.000236748 23.4577 0C24.1593 0.00545907 24.8161 0.129729 25.4575 0.414957C25.5255 0.442017 25.5937 0.468812 25.6619 0.495299C26.3793 0.785217 26.9703 1.2535 27.5317 1.78076C27.5617 1.80878 27.5916 1.83679 27.6225 1.86566C28.5913 2.80355 29.2684 4.22454 29.2964 5.58428C29.2982 5.72742 29.2998 5.87056 29.3007 6.01371C29.3014 6.08813 29.3024 6.16256 29.304 6.23696C29.3153 6.79034 29.2468 7.27698 29.0873 7.80638C29.0727 7.85556 29.0727 7.85556 29.0578 7.90573C28.6034 9.42749 27.558 10.7303 26.1755 11.5021C24.7741 12.2485 23.0903 12.5006 21.5496 12.0364C20.5675 11.7173 19.6487 11.1956 18.9159 10.4577C17.8055 9.36623 16.2405 8.86262 14.715 8.87746C14.3679 8.88471 14.0315 8.90107 13.6906 8.97133C13.664 8.97651 13.6374 8.98169 13.61 8.98703C13.1985 9.06833 12.834 9.19503 12.4541 9.37304C12.361 9.41325 12.268 9.45342 12.1749 9.49355C11.7056 9.70685 11.2897 10.0022 10.8985 10.3371C10.8607 10.3692 10.823 10.4014 10.7841 10.4344C9.85567 11.2454 9.27369 12.3578 8.95392 13.5382C8.9455 13.5688 8.93709 13.5993 8.92842 13.6307C8.54821 15.093 8.91821 16.7983 9.65573 18.0814C9.92677 18.545 10.2647 18.9386 10.6417 19.3177C11.34 20.0221 11.8932 20.8417 12.2147 21.7858C12.2234 21.8107 12.2321 21.8356 12.2411 21.8613C12.2688 21.9413 12.2955 22.0217 12.3219 22.1022C12.3377 22.1501 12.3535 22.1981 12.3698 22.2475C12.4942 22.7052 12.5061 23.1754 12.5022 23.6464C12.5014 23.7367 12.5014 23.827 12.5014 23.9173C12.5002 24.469 12.4818 24.9871 12.312 25.5167C12.2977 25.562 12.2835 25.6073 12.2688 25.6539C12.1504 26.0191 12.0056 26.3541 11.8159 26.6866C11.8021 26.7117 11.7882 26.7368 11.774 26.7626C11.0001 28.1634 9.71511 29.2201 8.18667 29.6799C7.21493 29.9563 6.0528 30.0588 5.07483 29.7798C5.01877 29.7663 4.96268 29.753 4.90655 29.7398C3.91921 29.4981 3.01611 28.9541 2.28268 28.2533C2.24442 28.2174 2.20617 28.1814 2.16675 28.1444C1.69701 27.6942 1.35538 27.177 1.04616 26.6063C1.02785 26.5761 1.00955 26.5459 0.990687 26.5148C0.732901 26.0868 0.606059 25.5885 0.495205 25.1049C0.482826 25.0513 0.482826 25.0513 0.470197 24.9965C0.242059 23.9517 0.31913 22.7889 0.687165 21.7858C0.712925 21.7145 0.712925 21.7145 0.739206 21.6418C1.06507 20.7682 1.57675 20.0386 2.21038 19.3629C3.13701 18.3694 3.63293 17.0225 3.71864 15.6799C3.72171 15.632 3.72171 15.632 3.72483 15.5831C3.75055 15.1 3.68044 14.6285 3.59898 14.1534C3.59034 14.1024 3.5817 14.0514 3.5728 13.9988C3.45019 13.3586 3.20244 12.7875 2.881 12.2252C2.85801 12.1847 2.83503 12.1442 2.81135 12.1025C2.64031 11.8174 2.43135 11.5691 2.21393 11.3195C2.16891 11.2678 2.12433 11.2158 2.07981 11.1636C1.93472 10.9942 1.78392 10.8339 1.62257 10.6799C1.44288 10.5048 1.29305 10.3187 1.14837 10.1137C1.12595 10.0821 1.10353 10.0504 1.08043 10.0179C0.778879 9.58689 0.53647 9.15188 0.368062 8.64997C0.359585 8.62479 0.351107 8.59962 0.342373 8.57369C0.124204 7.91906 0.00160646 7.28191 0.00168044 6.58979C0.00159396 6.49954 0.000870319 6.4093 0.000112587 6.31904C-0.00168126 5.8581 0.0162634 5.4005 0.177972 4.96383C0.212526 4.86209 0.233598 4.76063 0.255878 4.65549C0.61531 3.17739 1.77469 1.95956 3.01671 1.1713C3.25596 1.02617 3.49623 0.912266 3.75853 0.816665C3.7901 0.80403 3.82167 0.791395 3.8542 0.778378C5.38242 0.181695 7.06524 0.230615 8.56501 0.889475C9.22804 1.19483 9.81695 1.62453 10.345 2.12724C11.5205 3.24477 13.0095 3.7601 14.6071 3.72136C14.7138 3.71789 14.8204 3.71349 14.9271 3.70896C15.0043 3.70606 15.0043 3.70606 15.083 3.70311C15.4138 3.6865 15.718 3.63628 16.0365 3.54577C16.081 3.5334 16.1254 3.52102 16.1712 3.50827C16.7052 3.35404 17.2178 3.13975 17.6794 2.8252C17.7227 2.79595 17.766 2.76669 17.8106 2.73655C18.2225 2.45224 18.577 2.12769 18.9234 1.7657C20.1045 0.567609 21.6495 0.00687597 23.3036 0.00069632Z" fill="#212121"/>
<path d="M24.9769 17.8091C25.0257 17.8169 25.0744 17.8247 25.1247 17.8328C25.4999 17.8985 25.8261 18.0208 26.1736 18.1706C26.2408 18.1959 26.3081 18.221 26.3755 18.2459C27.1434 18.5578 27.9247 19.1351 28.4472 19.7775C28.4936 19.8294 28.5402 19.8813 28.5868 19.9331C28.9171 20.314 29.2125 20.7566 29.4045 21.2236C29.4327 21.2862 29.4327 21.2862 29.4615 21.3501C30.0923 22.7683 30.1826 24.4842 29.6488 25.9518C29.3089 26.8131 28.8034 27.5515 28.168 28.2133C28.1313 28.2534 28.1313 28.2534 28.0938 28.2943C27.0556 29.402 25.4539 29.9478 23.9778 29.9998C22.3816 30.0173 20.8801 29.4171 19.7306 28.31C19.674 28.2556 19.6168 28.2019 19.5595 28.1482C19.1061 27.7111 18.7698 27.202 18.4752 26.6467C18.454 26.6085 18.4328 26.5704 18.4109 26.5312C17.7317 25.2586 17.6288 23.5324 18.0217 22.1551C18.4976 20.5784 19.5324 19.2777 20.9483 18.4518C21.1809 18.3282 21.4214 18.2264 21.6663 18.1305C21.713 18.1116 21.7597 18.0928 21.8079 18.0733C22.8134 17.7018 23.9248 17.6114 24.9769 17.8091Z" fill="#212121"/>
</svg>
