<svg width="30" height="30" viewBox="0 0 30 30" fill="none" xmlns="http://www.w3.org/2000/svg">
<path d="M29.7049 25.1547C29.6881 25.2097 29.6713 25.2647 29.6547 25.3198C29.5231 25.7443 29.3544 26.1352 29.1408 26.5246C29.1103 26.5804 29.1103 26.5804 29.0793 26.6373C28.8311 27.069 28.515 27.453 28.1738 27.8139C28.1437 27.8466 28.1137 27.8793 28.0827 27.9129C27.1902 28.8497 25.7295 29.5997 24.4219 29.6335C24.361 29.6343 24.3001 29.6349 24.2393 29.6352C24.2063 29.6354 24.1734 29.6357 24.1394 29.6359C24.0699 29.6363 24.0003 29.6365 23.9307 29.6367C23.8264 29.6371 23.7222 29.6383 23.618 29.6396C23.0206 29.6435 22.4803 29.5568 21.9111 29.3676C21.8747 29.3561 21.8384 29.3445 21.801 29.3326C21.168 29.1271 20.5428 28.8106 20.035 28.378C19.967 28.3251 19.899 28.2722 19.831 28.2193C19.7048 28.1212 19.5927 28.0163 19.4815 27.9019C19.3141 27.7329 19.1344 27.5908 18.9421 27.4513C18.9087 27.4269 18.8754 27.4026 18.841 27.3775C18.5642 27.1783 18.2832 27.0033 17.9801 26.8469C17.947 26.8291 17.9138 26.8112 17.8796 26.7928C16.5556 26.1318 14.8389 26.0491 13.4373 26.4944C13.0943 26.6093 12.7766 26.7524 12.4603 26.9275C12.4044 26.9559 12.4044 26.9559 12.3474 26.9848C11.7773 27.2785 11.2996 27.6845 10.8486 28.1362C10.0049 28.9667 9.06488 29.4852 7.93002 29.8008C7.87493 29.8162 7.87493 29.8162 7.81873 29.8319C6.93407 30.0691 5.80107 30.056 4.9258 29.7882C4.86905 29.772 4.81229 29.7558 4.75551 29.7397C4.59576 29.693 4.43858 29.6407 4.28115 29.5867C4.23747 29.5724 4.19379 29.5581 4.14878 29.5433C3.36184 29.2663 2.70261 28.7452 2.10542 28.1765C2.07192 28.1461 2.03842 28.1157 2.00391 28.0843C1.50222 27.6126 1.1349 27.0291 0.856396 26.4037C0.83801 26.3639 0.819625 26.3241 0.800681 26.283C0.249863 25.0341 0.0474958 23.5348 0.504832 22.2246C0.533574 22.1344 0.553433 22.0459 0.571683 21.9531C0.614499 21.7505 0.691918 21.57 0.778333 21.3824C0.794358 21.3474 0.810384 21.3124 0.826896 21.2763C1.13125 20.6239 1.5222 20.0628 2.01981 19.5442C2.79611 18.7286 3.25371 17.7702 3.55591 16.6936C3.56416 16.6663 3.57241 16.6391 3.58091 16.611C3.83935 15.7023 3.75146 14.4822 3.47532 13.5911C3.46651 13.5612 3.45769 13.5312 3.44861 13.5004C3.36486 13.2172 3.26971 12.9559 3.1127 12.7047C3.08575 12.6404 3.08575 12.6404 3.05825 12.5747C2.99178 12.4168 2.90939 12.2719 2.82059 12.1255C2.80451 12.099 2.78843 12.0725 2.77186 12.0451C2.47883 11.5684 2.1007 11.1614 1.69999 10.7733C0.736732 9.81764 0.0284649 8.34222 -0.000419922 6.98102C-0.000767055 6.88192 -0.000540076 6.78281 0.000209516 6.68371C0.000482269 6.63124 0.000755022 6.57876 0.00103541 6.52469C0.0141466 5.28228 0.0141485 5.28228 0.211738 4.7968C0.246729 4.70126 0.267248 4.61551 0.286655 4.51617C0.330513 4.31043 0.411358 4.132 0.503849 3.94391C0.520128 3.91031 0.536407 3.87671 0.553181 3.84208C0.752146 3.43599 0.987276 3.07364 1.25931 2.71252C1.28445 2.67902 1.30959 2.64552 1.33549 2.611C1.46208 2.44505 1.59092 2.29233 1.7428 2.14844C1.77251 2.1178 1.80222 2.08715 1.83283 2.05558C1.95326 1.93821 2.0788 1.83381 2.21119 1.73042C2.24829 1.70138 2.24829 1.70138 2.28614 1.67176C2.49939 1.50696 2.7209 1.36112 2.95154 1.22174C2.98125 1.20211 3.01096 1.18248 3.04156 1.16225C3.77155 0.691535 4.74084 0.372799 5.60981 0.367443C5.64038 0.367157 5.67095 0.36687 5.70245 0.366575C6.93457 0.35767 8.02059 0.491278 9.11609 1.10087C9.1512 1.11972 9.18631 1.13858 9.22248 1.158C10.0543 1.62762 10.7075 2.29943 11.2515 3.07514C11.2763 3.10952 11.3011 3.1439 11.3266 3.17933C11.5983 3.56821 11.7738 4.002 11.9365 4.44504C11.9561 4.49381 11.9757 4.54258 11.996 4.59282C12.3534 5.55199 12.388 6.759 12.1379 7.74891C12.1306 7.78003 12.1232 7.81115 12.1157 7.84321C12.0213 8.2432 11.9118 8.62553 11.735 8.99794C11.7239 9.02227 11.7127 9.04659 11.7012 9.07165C11.5117 9.48361 11.2862 9.84772 11.0098 10.2067C10.9809 10.2445 10.9521 10.2824 10.9224 10.3214C10.8067 10.4698 10.6901 10.6105 10.554 10.7405C9.45513 11.8119 8.88714 13.3482 8.86253 14.8634C8.85329 16.5631 9.44371 18.0833 10.632 19.2999C10.6794 19.346 10.6794 19.346 10.7277 19.3931C10.7473 19.4136 10.7669 19.4342 10.7871 19.4554C10.9583 19.6331 11.139 19.7775 11.3422 19.9168C11.3721 19.9376 11.4021 19.9584 11.433 19.9799C11.968 20.3494 12.4841 20.5923 13.0935 20.8105C13.1708 20.8383 13.2479 20.8665 13.3249 20.8949C14.3604 21.2489 15.7008 21.1697 16.7311 20.8435C16.7709 20.832 16.8106 20.8205 16.8515 20.8086C17.4322 20.631 17.9689 20.3463 18.4636 19.9974C18.5071 19.9668 18.5505 19.9362 18.5952 19.9047C19.7151 19.0898 20.6614 17.752 20.9137 16.3728C20.9269 16.2801 20.9385 16.1871 20.9483 16.0939C20.9608 15.977 20.9825 15.8666 21.007 15.7517C21.1169 15.0936 21.0616 14.4011 20.9214 13.7523C20.9138 13.7162 20.9063 13.6801 20.8984 13.643C20.6089 12.3045 19.8749 11.2065 18.8867 10.2772C18.1906 9.58739 17.7584 8.65436 17.5067 7.72121C17.4947 7.67678 17.4947 7.67678 17.4825 7.63145C17.3605 7.15561 17.3205 6.68759 17.3206 6.1984C17.3204 6.10504 17.3189 6.01176 17.3174 5.91842C17.3142 5.49531 17.381 5.1337 17.4967 4.72707C17.5214 4.62156 17.5442 4.51572 17.5672 4.40978C17.7344 3.70523 18.1075 3.04089 18.5442 2.47077C18.5801 2.42247 18.5801 2.42247 18.6166 2.37319C19.2292 1.57215 20.1147 0.817459 21.0826 0.496502C21.1514 0.470486 21.2202 0.444464 21.2891 0.418438C21.3679 0.390473 21.4468 0.362798 21.5258 0.335337C21.5739 0.318146 21.6221 0.300954 21.6717 0.283242C23.0527 -0.193023 24.7509 -0.0510177 26.0603 0.576711C26.189 0.641044 26.3153 0.709271 26.4413 0.77854C26.4833 0.800822 26.5253 0.823103 26.5686 0.846059C27.0148 1.09236 27.4237 1.41273 27.7709 1.78582C27.8025 1.81657 27.8341 1.84731 27.8666 1.87899C28.4354 2.4613 28.8963 3.11437 29.1811 3.88096C29.1938 3.91244 29.2065 3.94391 29.2197 3.97634C29.3166 4.22418 29.3854 4.477 29.4505 4.73463C29.4592 4.76862 29.4678 4.8026 29.4767 4.83762C29.4849 4.87069 29.493 4.90375 29.5014 4.93782C29.5122 4.98169 29.5122 4.98169 29.5232 5.02646C29.5958 5.39297 29.5937 5.7602 29.5941 6.13223C29.5942 6.17953 29.5942 6.17953 29.5942 6.22779C29.594 6.78493 29.5792 7.339 29.3723 7.86507C29.3373 7.95933 29.3373 7.95933 29.3086 8.09705C29.2601 8.29477 29.182 8.47552 29.098 8.6605C29.082 8.69582 29.0659 8.73114 29.0494 8.76753C28.7672 9.37467 28.3708 9.9174 27.9144 10.4056C26.7479 11.6565 26.1512 13.2006 26.1906 14.9144C26.2508 16.5593 26.9765 18.0226 28.1486 19.1614C28.8168 19.8249 29.3394 20.67 29.6243 21.5688C29.6324 21.5931 29.6406 21.6174 29.649 21.6425C30.0077 22.7174 30.0676 24.0724 29.7049 25.1547Z" fill="#1D1D1B"/>
</svg>
