<svg width="30" height="30" viewBox="0 0 30 30" fill="none" xmlns="http://www.w3.org/2000/svg">
<path d="M6.5642 0.00155536C6.59432 0.00116538 6.62444 0.0007754 6.65547 0.0003736C7.06149 -0.00412609 7.42989 0.0314963 7.82523 0.135733C7.87406 0.148132 7.87406 0.148132 7.92389 0.160782C9.09555 0.469611 10.0669 1.06084 10.9083 1.9332C11.6593 2.6935 12.631 3.19484 13.6502 3.4851C13.6788 3.49331 13.7074 3.50152 13.7369 3.50997C14.2037 3.6378 14.6555 3.67389 15.137 3.67257C15.234 3.67245 15.3309 3.6734 15.4279 3.67442C16.0212 3.67696 16.5622 3.58252 17.125 3.3889C17.1871 3.36775 17.1871 3.36775 17.2504 3.34617C18.1611 3.02748 18.9959 2.49597 19.6674 1.80108C20.7384 0.732097 22.3348 0.208586 23.8167 0.201556C25.5028 0.215414 26.9979 0.865433 28.2038 2.03953C28.2372 2.07146 28.2372 2.07146 28.2712 2.10404C28.4491 2.27718 28.603 2.46153 28.7522 2.65979C28.7752 2.69025 28.7981 2.72071 28.8218 2.75209C29.7577 4.00457 30.1516 5.64681 29.9475 7.19397C29.7066 8.80336 28.8981 10.3149 27.5769 11.2957C26.8339 11.8312 26.0745 12.222 25.1713 12.4092C25.1015 12.4248 25.1015 12.4248 25.0304 12.4407C24.6366 12.5235 24.2605 12.5485 23.8585 12.5443C23.7604 12.5433 23.6622 12.5435 23.564 12.5437C23.2404 12.5431 22.9394 12.5284 22.6239 12.4497C22.5765 12.442 22.5291 12.4344 22.4802 12.4266C21.2178 12.2153 20.1012 11.4609 19.2351 10.5459C18.8044 10.1108 18.266 9.78288 17.7315 9.4927C17.693 9.47179 17.693 9.47179 17.6537 9.45046C17.4431 9.34043 17.2265 9.26069 17.0011 9.18637C16.9455 9.16792 16.9455 9.16792 16.8886 9.14909C15.6488 8.74812 14.1382 8.71571 12.9199 9.20916C12.8872 9.22201 12.8545 9.23487 12.8208 9.24812C12.1313 9.52132 11.4329 9.87541 10.9088 10.4158C10.8577 10.4649 10.8577 10.4649 10.7769 10.4649C10.766 10.4891 10.7552 10.5133 10.744 10.5383C10.696 10.6268 10.6517 10.6841 10.5747 10.7484C10.548 10.7484 10.5213 10.7484 10.4938 10.7484C10.4831 10.7722 10.4724 10.796 10.4613 10.8206C10.4117 10.9128 10.3582 10.9761 10.2866 11.0522C10.1022 11.2596 9.95371 11.4857 9.80647 11.7206C9.7802 11.7621 9.75393 11.8037 9.72687 11.8465C8.88076 13.2525 8.67903 14.9054 9.05087 16.4938C9.11732 16.7523 9.20853 16.9975 9.30863 17.2446C9.32648 17.2888 9.34433 17.3331 9.36271 17.3786C9.91104 18.7112 10.9893 19.937 12.3235 20.5282C12.3478 20.5382 12.3721 20.5483 12.3971 20.5586C12.4796 20.5933 12.5605 20.631 12.6417 20.6687C14.0739 21.3063 15.7731 21.2656 17.2195 20.7171C17.3634 20.6574 17.5014 20.5883 17.6396 20.5165C17.718 20.4768 17.7988 20.4419 17.8799 20.4082C18.0343 20.3396 18.1683 20.2559 18.3076 20.1611C18.3341 20.1431 18.3606 20.1252 18.3879 20.1068C18.7008 19.8922 18.9874 19.6549 19.2612 19.3924C20.052 18.6371 20.9266 18.1639 21.9644 17.8471C21.9902 17.8391 22.0161 17.831 22.0428 17.8227C22.5349 17.6786 23.0296 17.6599 23.5385 17.66C23.6468 17.6598 23.7551 17.6583 23.8634 17.6568C24.3113 17.6539 24.7029 17.7061 25.1308 17.837C25.2003 17.8562 25.2698 17.8754 25.3393 17.8946C25.7402 18.0148 26.1083 18.1667 26.4761 18.3665C26.539 18.4003 26.6027 18.4325 26.6665 18.4645C27.1365 18.705 27.5391 19.0555 27.9207 19.4168C27.963 19.4566 27.963 19.4566 28.0062 19.4973C28.9412 20.4049 29.4583 21.5966 29.6998 22.8598C29.707 22.8972 29.7142 22.9346 29.7215 22.9732C29.7583 23.2278 29.7501 23.4865 29.7504 23.7433C29.7504 23.7735 29.7505 23.8036 29.7505 23.8347C29.7501 24.2787 29.7273 24.6958 29.619 25.1282C29.607 25.1821 29.5952 25.2361 29.5834 25.2902C29.3311 26.4162 28.7508 27.3367 27.9612 28.1661C27.9292 28.2008 27.8973 28.2354 27.8644 28.271C27.1407 29.0321 26.1497 29.5478 25.1435 29.8193C25.1142 29.8272 25.085 29.8351 25.0549 29.8432C24.5785 29.9635 24.1039 30.0024 23.6147 29.9995C23.5284 29.999 23.4422 29.9995 23.3559 30C22.9365 30.0004 22.5366 29.9686 22.1387 29.8269C22.0849 29.8155 22.031 29.8046 21.977 29.794C20.847 29.5479 19.8793 28.8748 19.0835 28.0598C17.998 26.9507 16.457 26.3214 14.9154 26.2886C13.965 26.2819 12.9957 26.4248 12.1519 26.8856C12.0303 26.9509 12.0303 26.9509 11.8869 27.0119C11.2378 27.2936 10.6809 27.8375 10.1678 28.3155C9.51511 28.9047 8.70345 29.2918 7.87071 29.5509C7.83877 29.5611 7.80683 29.5712 7.77392 29.5817C7.27499 29.7313 6.77427 29.7593 6.2573 29.7564C6.16221 29.756 6.06715 29.7564 5.97207 29.757C5.62488 29.7573 5.2952 29.7387 4.95444 29.6649C4.92015 29.6577 4.88586 29.6505 4.85053 29.6432C4.40497 29.5458 3.98974 29.4217 3.57969 29.2193C3.55234 29.2059 3.52498 29.1926 3.49679 29.1788C3.10096 28.9835 2.75236 28.7666 2.40712 28.4902C2.34745 28.4461 2.28766 28.4022 2.22769 28.3585C2.10089 28.2631 1.99109 28.1599 1.88148 28.0446C1.84684 28.0119 1.84684 28.0119 1.81151 27.9785C1.19728 27.3914 0.701615 26.6189 0.425868 25.8168C0.405134 25.7625 0.384281 25.7083 0.363322 25.6541C-0.0909848 24.4408 -0.113699 23.0421 0.264133 21.8066C0.275235 21.7675 0.286337 21.7283 0.297776 21.688C0.55721 20.8311 1.0336 20.0876 1.63288 19.4319C1.71058 19.3459 1.78496 19.2581 1.85874 19.1687C1.89293 19.1302 1.92712 19.0918 1.96235 19.0522C1.98903 19.0522 2.01572 19.0522 2.04321 19.0522C2.05364 19.0287 2.06406 19.0051 2.0748 18.9808C2.12821 18.8826 2.18823 18.8163 2.2656 18.7357C2.49279 18.4846 2.6716 18.2037 2.85189 17.918C2.87878 17.8756 2.90568 17.8331 2.93339 17.7894C3.08348 17.5426 3.19597 17.2945 3.29429 17.0229C3.32792 16.9305 3.36406 16.8425 3.40532 16.7535C3.45841 16.6218 3.48952 16.4981 3.51762 16.3595C3.55059 16.2037 3.59225 16.0502 3.63292 15.8963C3.708 15.5564 3.7098 15.2165 3.71071 14.8699C3.7111 14.7801 3.71235 14.6904 3.71363 14.6006C3.71772 14.0535 3.62993 13.5402 3.4685 13.0168C3.45821 12.983 3.44791 12.9492 3.43731 12.9144C3.16458 12.0464 2.66858 11.0066 1.94134 10.4237C1.48908 10.0613 1.18456 9.4692 0.911072 8.96612C0.888399 8.92461 0.865726 8.8831 0.842366 8.84033C0.714217 8.59553 0.620821 8.35305 0.545432 8.08716C0.515137 7.98249 0.48171 7.88119 0.445769 7.77846C-0.0207222 6.38202 0.227608 4.69524 0.869918 3.40164C1.17103 2.81916 1.53212 2.32482 1.98701 1.8547C2.0378 1.8021 2.08786 1.74878 2.13782 1.69539C2.79221 1.01137 3.65845 0.548395 4.5501 0.257252C4.61202 0.234773 4.61202 0.234773 4.67519 0.21184C5.28659 0.000715696 5.92515 0.00622654 6.5642 0.00155536Z" fill="#1D1D1B"/>
</svg>
