<svg width="63" height="63" viewBox="0 0 63 63" fill="none" xmlns="http://www.w3.org/2000/svg">
<g clip-path="url(#clip0_1651_6010)">
<path d="M23.3828 23.3862C23.6727 23.4354 24.3089 23.4207 24.6303 23.4204L26.6628 23.4197L32.0209 23.4191C33.005 23.4184 34.0426 23.4 35.023 23.4221L37.1046 23.4145C38.0191 23.4133 39.4114 23.233 39.5869 24.5016C39.6122 24.6844 39.6154 24.8623 39.6169 25.0466L39.6195 30.4123C39.6197 31.4182 39.6555 32.6221 39.6119 33.6022C39.6503 33.98 39.6137 34.944 39.6187 35.3709C39.635 36.7777 39.5943 38.2085 39.6246 39.6143C39.216 39.5447 38.7625 39.5365 38.336 39.4584C36.9737 39.1978 35.7243 38.5255 34.7563 37.5322C32.6202 35.3109 32.8092 33.0287 32.8651 30.1924C32.7739 30.1977 32.6746 30.1981 32.5829 30.1994C29.8198 30.2395 27.5464 30.3653 25.3868 28.2577C24.0421 26.9453 23.4087 25.2427 23.3828 23.3862Z" fill="#1E7AF5"/>
<path d="M35.0234 23.4224L37.105 23.4147C38.0194 23.4135 39.4118 23.2332 39.5873 24.5018C39.6126 24.6847 39.6158 24.8625 39.6173 25.0468L39.6199 30.4125C39.6201 31.4185 39.6559 32.6223 39.6123 33.6025C39.5751 33.3422 39.5919 32.1851 39.5906 31.8743L39.5744 27.9907C39.5723 27.5026 39.5899 26.3708 39.5407 25.9222L39.5288 26.0395L39.4935 26.0569C39.3878 26.0301 39.1439 25.9554 39.0673 25.8768C38.4029 25.1946 37.664 24.5985 36.9863 23.9325C36.9358 23.8829 36.9004 23.8186 36.892 23.7481L36.9527 23.7087L36.856 23.6869L36.8246 23.6336L36.8588 23.5117C36.7427 23.4112 35.3588 23.5358 35.0234 23.4224Z" fill="#1E7AF5"/>
<path d="M16 30.8445C17.2106 30.8894 18.6343 30.8563 19.8549 30.8565L27.0303 30.8546L29.5888 30.8549C30.0525 30.8534 30.6968 30.8128 31.1365 30.8825C32.4875 31.0966 32.2293 32.6141 32.2291 33.5774L32.2281 36.5204L32.2297 47H31.2763C31.1329 46.9473 30.8443 46.8801 30.6875 46.8453C28.0601 46.2952 25.8269 43.8837 25.5236 41.2096C25.4122 40.2274 25.4284 38.6402 25.4725 37.6149C24.8414 37.6243 24.2103 37.6292 23.5792 37.6295C22.1266 37.6324 21.1596 37.6158 19.7927 36.959C18.1143 36.1495 16.8472 34.6798 16.2936 32.9006C16.2301 32.7035 16.1709 32.5043 16.1285 32.3016C16.0807 32.0736 16.0834 31.8278 16 31.6099V30.8445Z" fill="#1C77F2"/>
<path d="M30.7695 16H46.0234C46.5297 16.2655 46.7922 16.3495 46.9983 16.9789V32.1625C44.9434 32.0219 43.4814 31.4824 42.0319 29.9608C40.0192 27.8481 40.2011 25.3901 40.2509 22.732C40.2346 22.7333 40.2182 22.7343 40.2018 22.7349C39.0596 22.7824 37.594 22.7961 36.4648 22.6672C35.2234 22.5256 33.8281 21.7918 32.9179 20.9394C31.478 19.5909 30.845 17.9559 30.7695 16Z" fill="#2584FE"/>
</g>
<defs>
<clipPath id="clip0_1651_6010">
<rect width="31" height="31" fill="white" transform="translate(16 16)"/>
</clipPath>
</defs>
</svg>
