<svg width="63" height="63" viewBox="0 0 63 63" fill="none" xmlns="http://www.w3.org/2000/svg">
<path fill-rule="evenodd" clip-rule="evenodd" d="M20.1054 10.3214C21.3737 10.3214 22.3002 9.39464 22.3002 8.15743C22.3002 6.92883 21.3737 6.00204 20.1054 6.00204H18.9941V10.3214H20.1054ZM17.7344 5.03804C17.7344 4.94295 17.8122 4.85889 17.9109 4.85889H20.2226C22.1055 4.85889 23.6463 6.34209 23.6463 8.15743C23.6463 9.99034 22.1052 11.4739 20.2226 11.4739H17.9109C17.8122 11.4739 17.7344 11.3891 17.7344 11.2944V5.03804Z" fill="#000B21"/>
<mask id="mask0_1653_6339" style="mask-type:luminance" maskUnits="userSpaceOnUse" x="0" y="1" width="54" height="14">
<path d="M0 14.7812H53.7694V1H0V14.7812Z" fill="white"/>
</mask>
<g mask="url(#mask0_1653_6339)">
<path fill-rule="evenodd" clip-rule="evenodd" d="M13.995 14.0326H26.5404V1.74901H13.995V14.0326ZM13.2305 14.7812H27.306V1H13.2305V14.7812Z" fill="#000B21"/>
</g>
<mask id="mask1_1653_6339" style="mask-type:luminance" maskUnits="userSpaceOnUse" x="0" y="1" width="54" height="14">
<path d="M0 14.7812H53.7694V1H0V14.7812Z" fill="white"/>
</mask>
<g mask="url(#mask1_1653_6339)">
<path fill-rule="evenodd" clip-rule="evenodd" d="M0.764526 14.0326H13.311V1.74901H0.764526V14.0326ZM0 14.7812H14.0755V1H0V14.7812Z" fill="#000B21"/>
</g>
<mask id="mask2_1653_6339" style="mask-type:luminance" maskUnits="userSpaceOnUse" x="0" y="1" width="54" height="14">
<path d="M0 14.7812H53.7694V1H0V14.7812Z" fill="white"/>
</mask>
<g mask="url(#mask2_1653_6339)">
<path fill-rule="evenodd" clip-rule="evenodd" d="M5.06641 5.03791C5.06641 4.94419 5.14812 4.85875 5.25825 4.85875H9.37895C9.49014 4.85875 9.57079 4.94419 9.57079 5.03791V5.8131C9.57079 5.90819 9.49014 5.99226 9.37895 5.99226H6.38266V7.54265H8.883C8.98425 7.54265 9.07555 7.6274 9.07555 7.7218V8.5063C9.07555 8.6107 8.98425 8.68615 8.883 8.68615H6.38266V10.3402H9.37895C9.49014 10.3402 9.57079 10.4253 9.57079 10.5194V11.2946C9.57079 11.3893 9.49014 11.4737 9.37895 11.4737H5.2586C5.14812 11.4737 5.06676 11.3893 5.06676 11.2946V5.03791H5.06641ZM27.2259 14.0326H39.7724V1.74901H27.2259V14.0326ZM26.4621 14.7812H40.5377V1H26.4621V14.7812Z" fill="#000B21"/>
</g>
<mask id="mask3_1653_6339" style="mask-type:luminance" maskUnits="userSpaceOnUse" x="0" y="1" width="54" height="14">
<path d="M0 14.7812H53.7694V1H0V14.7812Z" fill="white"/>
</mask>
<g mask="url(#mask3_1653_6339)">
<path fill-rule="evenodd" clip-rule="evenodd" d="M32.6562 5.03791C32.6562 4.94419 32.7731 4.85875 32.9007 4.85875H34.0997C34.2301 4.85875 34.3455 4.94419 34.3455 5.03791V11.2946C34.3455 11.389 34.2301 11.4741 34.0997 11.4741H32.9007C32.7728 11.4741 32.6562 11.389 32.6562 11.2946V5.03791ZM40.4593 14.0326H53.0054V1.74901H40.4593V14.0326ZM39.694 14.7812H53.7695V1H39.694V14.7812Z" fill="#000B21"/>
</g>
<mask id="mask4_1653_6339" style="mask-type:luminance" maskUnits="userSpaceOnUse" x="0" y="1" width="54" height="14">
<path d="M0 14.7812H53.7694V1H0V14.7812Z" fill="white"/>
</mask>
<g mask="url(#mask4_1653_6339)">
<path fill-rule="evenodd" clip-rule="evenodd" d="M45.8302 5.99239H44.3793C44.2756 5.99239 44.1992 5.90764 44.1992 5.81324V5.03804C44.1992 4.94433 44.2756 4.85889 44.3793 4.85889H48.5228C48.6276 4.85889 48.7036 4.94433 48.7036 5.03804V5.81324C48.7036 5.90764 48.6276 5.99239 48.5228 5.99239H47.0722V11.294C47.0722 11.3884 46.987 11.4739 46.8921 11.4739H46.01C45.9159 11.4739 45.8299 11.3884 45.8299 11.294V5.99274L45.8302 5.99239Z" fill="#000B21"/>
</g>
<mask id="mask5_1653_6339" style="mask-type:luminance" maskUnits="userSpaceOnUse" x="0" y="1" width="54" height="14">
<path d="M0 14.7812H53.7694V1H0V14.7812Z" fill="white"/>
</mask>
<g mask="url(#mask5_1653_6339)">
<path fill-rule="evenodd" clip-rule="evenodd" d="M50.1055 9.81982C50.5652 9.81982 50.9545 10.2009 50.9545 10.6519C50.9545 11.1032 50.5652 11.4736 50.1055 11.4736C49.645 11.4736 49.2656 11.1032 49.2656 10.6519C49.2656 10.2005 49.645 9.81982 50.1055 9.81982Z" fill="#FFDD06"/>
</g>
</svg>
